<?xml version="1.0" encoding="utf-8" standalone="no"?>
<!DOCTYPE svg PUBLIC "-//W3C//DTD SVG 1.1//EN"
  "http://www.w3.org/Graphics/SVG/1.1/DTD/svg11.dtd">
<svg height="648pt" version="1.1" viewBox="0 0 1152 648" width="1152pt" xmlns="http://www.w3.org/2000/svg" xmlns:xlink="http://www.w3.org/1999/xlink">
 <metadata>
  <rdf:RDF xmlns:cc="http://creativecommons.org/ns#" xmlns:dc="http://purl.org/dc/elements/1.1/" xmlns:rdf="http://www.w3.org/1999/02/22-rdf-syntax-ns#">
   <cc:Work>
    <dc:type rdf:resource="http://purl.org/dc/dcmitype/StillImage"/>
    <dc:date>2021-10-03T18:41:58.373610</dc:date>
    <dc:format>image/svg+xml</dc:format>
    <dc:creator>
     <cc:Agent>
      <dc:title>Matplotlib v3.4.1, https://matplotlib.org/</dc:title>
     </cc:Agent>
    </dc:creator>
   </cc:Work>
  </rdf:RDF>
 </metadata>
 <defs>
  <style type="text/css">*{stroke-linecap:butt;stroke-linejoin:round;}</style>
 </defs>
 <g id="figure_1">
  <g id="patch_1">
   <path d="M 0 648 
L 1152 648 
L 1152 0 
L 0 0 
z
" style="fill:none;"/>
  </g>
  <g id="axes_1">
   <g id="patch_2">
    <path d="M 144 567 
L 1036.8 567 
L 1036.8 77.76 
L 144 77.76 
z
" style="fill:#ffffff;"/>
   </g>
   <g id="patch_3">
    <path clip-path="url(#p901cc22c56)" d="M 162.6 59888.450105 
L 171.9 59888.450105 
L 171.9 535.413723 
L 162.6 535.413723 
z
" style="fill:#000080;"/>
   </g>
   <g id="patch_4">
    <path clip-path="url(#p901cc22c56)" d="M 237 59888.450105 
L 246.3 59888.450105 
L 246.3 462.126194 
L 237 462.126194 
z
" style="fill:#000080;"/>
   </g>
   <g id="patch_5">
    <path clip-path="url(#p901cc22c56)" d="M 311.4 59888.450105 
L 320.7 59888.450105 
L 320.7 544.761818 
L 311.4 544.761818 
z
" style="fill:#000080;"/>
   </g>
   <g id="patch_6">
    <path clip-path="url(#p901cc22c56)" d="M 385.8 59888.450105 
L 395.1 59888.450105 
L 395.1 471.939738 
L 385.8 471.939738 
z
" style="fill:#000080;"/>
   </g>
   <g id="patch_7">
    <path clip-path="url(#p901cc22c56)" d="M 460.2 59888.450105 
L 469.5 59888.450105 
L 469.5 392.273097 
L 460.2 392.273097 
z
" style="fill:#000080;"/>
   </g>
   <g id="patch_8">
    <path clip-path="url(#p901cc22c56)" d="M 534.6 59888.450105 
L 543.9 59888.450105 
L 543.9 473.816896 
L 534.6 473.816896 
z
" style="fill:#000080;"/>
   </g>
   <g id="patch_9">
    <path clip-path="url(#p901cc22c56)" d="M 609 59888.450105 
L 618.3 59888.450105 
L 618.3 433.437979 
L 609 433.437979 
z
" style="fill:#000080;"/>
   </g>
   <g id="patch_10">
    <path clip-path="url(#p901cc22c56)" d="M 683.4 59888.450105 
L 692.7 59888.450105 
L 692.7 344.160043 
L 683.4 344.160043 
z
" style="fill:#000080;"/>
   </g>
   <g id="patch_11">
    <path clip-path="url(#p901cc22c56)" d="M 757.8 59888.450105 
L 767.1 59888.450105 
L 767.1 433.317993 
L 757.8 433.317993 
z
" style="fill:#000080;"/>
   </g>
   <g id="patch_12">
    <path clip-path="url(#p901cc22c56)" d="M 832.2 59888.450105 
L 841.5 59888.450105 
L 841.5 332.580112 
L 832.2 332.580112 
z
" style="fill:#000080;"/>
   </g>
   <g id="patch_13">
    <path clip-path="url(#p901cc22c56)" d="M 906.6 59888.450105 
L 915.9 59888.450105 
L 915.9 463.99899 
L 906.6 463.99899 
z
" style="fill:#000080;"/>
   </g>
   <g id="patch_14">
    <path clip-path="url(#p901cc22c56)" d="M 981 59888.450105 
L 990.3 59888.450105 
L 990.3 340.222675 
L 981 340.222675 
z
" style="fill:#000080;"/>
   </g>
   <g id="patch_15">
    <path clip-path="url(#p901cc22c56)" d="M 171.9 59888.450105 
L 181.2 59888.450105 
L 181.2 515.855503 
L 171.9 515.855503 
z
" style="fill:#4169e1;"/>
   </g>
   <g id="patch_16">
    <path clip-path="url(#p901cc22c56)" d="M 246.3 59888.450105 
L 255.6 59888.450105 
L 255.6 466.6609 
L 246.3 466.6609 
z
" style="fill:#4169e1;"/>
   </g>
   <g id="patch_17">
    <path clip-path="url(#p901cc22c56)" d="M 320.7 59888.450105 
L 330 59888.450105 
L 330 538.979298 
L 320.7 538.979298 
z
" style="fill:#4169e1;"/>
   </g>
   <g id="patch_18">
    <path clip-path="url(#p901cc22c56)" d="M 395.1 59888.450105 
L 404.4 59888.450105 
L 404.4 401.619177 
L 395.1 401.619177 
z
" style="fill:#4169e1;"/>
   </g>
   <g id="patch_19">
    <path clip-path="url(#p901cc22c56)" d="M 469.5 59888.450105 
L 478.8 59888.450105 
L 478.8 402.992191 
L 469.5 402.992191 
z
" style="fill:#4169e1;"/>
   </g>
   <g id="patch_20">
    <path clip-path="url(#p901cc22c56)" d="M 543.9 59888.450105 
L 553.2 59888.450105 
L 553.2 457.420469 
L 543.9 457.420469 
z
" style="fill:#4169e1;"/>
   </g>
   <g id="patch_21">
    <path clip-path="url(#p901cc22c56)" d="M 618.3 59888.450105 
L 627.6 59888.450105 
L 627.6 335.147278 
L 618.3 335.147278 
z
" style="fill:#4169e1;"/>
   </g>
   <g id="patch_22">
    <path clip-path="url(#p901cc22c56)" d="M 692.7 59888.450105 
L 702 59888.450105 
L 702 336.24526 
L 692.7 336.24526 
z
" style="fill:#4169e1;"/>
   </g>
   <g id="patch_23">
    <path clip-path="url(#p901cc22c56)" d="M 767.1 59888.450105 
L 776.4 59888.450105 
L 776.4 390.340745 
L 767.1 390.340745 
z
" style="fill:#4169e1;"/>
   </g>
   <g id="patch_24">
    <path clip-path="url(#p901cc22c56)" d="M 841.5 59888.450105 
L 850.8 59888.450105 
L 850.8 255.057536 
L 841.5 255.057536 
z
" style="fill:#4169e1;"/>
   </g>
   <g id="patch_25">
    <path clip-path="url(#p901cc22c56)" d="M 915.9 59888.450105 
L 925.2 59888.450105 
L 925.2 303.179166 
L 915.9 303.179166 
z
" style="fill:#4169e1;"/>
   </g>
   <g id="patch_26">
    <path clip-path="url(#p901cc22c56)" d="M 990.3 59888.450105 
L 999.6 59888.450105 
L 999.6 332.638704 
L 990.3 332.638704 
z
" style="fill:#4169e1;"/>
   </g>
   <g id="patch_27">
    <path clip-path="url(#p901cc22c56)" d="M 181.2 59888.450105 
L 190.5 59888.450105 
L 190.5 494.269984 
L 181.2 494.269984 
z
" style="fill:#9acd32;"/>
   </g>
   <g id="patch_28">
    <path clip-path="url(#p901cc22c56)" d="M 255.6 59888.450105 
L 264.9 59888.450105 
L 264.9 474.41966 
L 255.6 474.41966 
z
" style="fill:#9acd32;"/>
   </g>
   <g id="patch_29">
    <path clip-path="url(#p901cc22c56)" d="M 330 59888.450105 
L 339.3 59888.450105 
L 339.3 534.731902 
L 330 534.731902 
z
" style="fill:#9acd32;"/>
   </g>
   <g id="patch_30">
    <path clip-path="url(#p901cc22c56)" d="M 404.4 59888.450105 
L 413.7 59888.450105 
L 413.7 342.270268 
L 404.4 342.270268 
z
" style="fill:#9acd32;"/>
   </g>
   <g id="patch_31">
    <path clip-path="url(#p901cc22c56)" d="M 478.8 59888.450105 
L 488.1 59888.450105 
L 488.1 417.248941 
L 478.8 417.248941 
z
" style="fill:#9acd32;"/>
   </g>
   <g id="patch_32">
    <path clip-path="url(#p901cc22c56)" d="M 553.2 59888.450105 
L 562.5 59888.450105 
L 562.5 449.511102 
L 553.2 449.511102 
z
" style="fill:#9acd32;"/>
   </g>
   <g id="patch_33">
    <path clip-path="url(#p901cc22c56)" d="M 627.6 59888.450105 
L 636.9 59888.450105 
L 636.9 253.117941 
L 627.6 253.117941 
z
" style="fill:#9acd32;"/>
   </g>
   <g id="patch_34">
    <path clip-path="url(#p901cc22c56)" d="M 702 59888.450105 
L 711.3 59888.450105 
L 711.3 336.389037 
L 702 336.389037 
z
" style="fill:#9acd32;"/>
   </g>
   <g id="patch_35">
    <path clip-path="url(#p901cc22c56)" d="M 776.4 59888.450105 
L 785.7 59888.450105 
L 785.7 393.096771 
L 776.4 393.096771 
z
" style="fill:#9acd32;"/>
   </g>
   <g id="patch_36">
    <path clip-path="url(#p901cc22c56)" d="M 850.8 59888.450105 
L 860.1 59888.450105 
L 860.1 177.527008 
L 850.8 177.527008 
z
" style="fill:#9acd32;"/>
   </g>
   <g id="patch_37">
    <path clip-path="url(#p901cc22c56)" d="M 925.2 59888.450105 
L 934.5 59888.450105 
L 934.5 303.824036 
L 925.2 303.824036 
z
" style="fill:#9acd32;"/>
   </g>
   <g id="patch_38">
    <path clip-path="url(#p901cc22c56)" d="M 999.6 59888.450105 
L 1008.9 59888.450105 
L 1008.9 327.051084 
L 999.6 327.051084 
z
" style="fill:#9acd32;"/>
   </g>
   <g id="patch_39">
    <path clip-path="url(#p901cc22c56)" d="M 190.5 59888.450105 
L 199.8 59888.450105 
L 199.8 480.713619 
L 190.5 480.713619 
z
" style="fill:#ffff00;"/>
   </g>
   <g id="patch_40">
    <path clip-path="url(#p901cc22c56)" d="M 264.9 59888.450105 
L 274.2 59888.450105 
L 274.2 488.676892 
L 264.9 488.676892 
z
" style="fill:#ffff00;"/>
   </g>
   <g id="patch_41">
    <path clip-path="url(#p901cc22c56)" d="M 339.3 59888.450105 
L 348.6 59888.450105 
L 348.6 532.367242 
L 339.3 532.367242 
z
" style="fill:#ffff00;"/>
   </g>
   <g id="patch_42">
    <path clip-path="url(#p901cc22c56)" d="M 413.7 59888.450105 
L 423 59888.450105 
L 423 296.450392 
L 413.7 296.450392 
z
" style="fill:#ffff00;"/>
   </g>
   <g id="patch_43">
    <path clip-path="url(#p901cc22c56)" d="M 488.1 59888.450105 
L 497.4 59888.450105 
L 497.4 433.110077 
L 488.1 433.110077 
z
" style="fill:#ffff00;"/>
   </g>
   <g id="patch_44">
    <path clip-path="url(#p901cc22c56)" d="M 562.5 59888.450105 
L 571.8 59888.450105 
L 571.8 443.183007 
L 562.5 443.183007 
z
" style="fill:#ffff00;"/>
   </g>
   <g id="patch_45">
    <path clip-path="url(#p901cc22c56)" d="M 636.9 59888.450105 
L 646.2 59888.450105 
L 646.2 177.618839 
L 636.9 177.618839 
z
" style="fill:#ffff00;"/>
   </g>
   <g id="patch_46">
    <path clip-path="url(#p901cc22c56)" d="M 711.3 59888.450105 
L 720.6 59888.450105 
L 720.6 335.464423 
L 711.3 335.464423 
z
" style="fill:#ffff00;"/>
   </g>
   <g id="patch_47">
    <path clip-path="url(#p901cc22c56)" d="M 785.7 59888.450105 
L 795 59888.450105 
L 795 371.905057 
L 785.7 371.905057 
z
" style="fill:#ffff00;"/>
   </g>
   <g id="patch_48">
    <path clip-path="url(#p901cc22c56)" d="M 860.1 59888.450105 
L 869.4 59888.450105 
L 869.4 99.998182 
L 860.1 99.998182 
z
" style="fill:#ffff00;"/>
   </g>
   <g id="patch_49">
    <path clip-path="url(#p901cc22c56)" d="M 934.5 59888.450105 
L 943.8 59888.450105 
L 943.8 293.114706 
L 934.5 293.114706 
z
" style="fill:#ffff00;"/>
   </g>
   <g id="patch_50">
    <path clip-path="url(#p901cc22c56)" d="M 1008.9 59888.450105 
L 1018.2 59888.450105 
L 1018.2 320.636216 
L 1008.9 320.636216 
z
" style="fill:#ffff00;"/>
   </g>
   <g id="matplotlib.axis_1">
    <g id="xtick_1">
     <g id="line2d_1">
      <defs>
       <path d="M 0 0 
L 0 3.5 
" id="meb9adeaf76" style="stroke:#000000;stroke-width:0.8;"/>
      </defs>
      <g>
       <use style="stroke:#000000;stroke-width:0.8;" x="181.2" xlink:href="#meb9adeaf76" y="567"/>
      </g>
     </g>
     <g id="text_1">
      <!-- Ex -->
      <g transform="translate(170.18625 587.677187)scale(0.18 -0.18)">
       <defs>
        <path d="M 628 4666 
L 3578 4666 
L 3578 4134 
L 1259 4134 
L 1259 2753 
L 3481 2753 
L 3481 2222 
L 1259 2222 
L 1259 531 
L 3634 531 
L 3634 0 
L 628 0 
L 628 4666 
z
" id="DejaVuSans-45" transform="scale(0.015625)"/>
        <path d="M 3513 3500 
L 2247 1797 
L 3578 0 
L 2900 0 
L 1881 1375 
L 863 0 
L 184 0 
L 1544 1831 
L 300 3500 
L 978 3500 
L 1906 2253 
L 2834 3500 
L 3513 3500 
z
" id="DejaVuSans-78" transform="scale(0.015625)"/>
       </defs>
       <use xlink:href="#DejaVuSans-45"/>
       <use x="63.183594" xlink:href="#DejaVuSans-78"/>
      </g>
      <!-- 11 bus -->
      <g transform="translate(150.781406 607.83325)scale(0.18 -0.18)">
       <defs>
        <path d="M 794 531 
L 1825 531 
L 1825 4091 
L 703 3866 
L 703 4441 
L 1819 4666 
L 2450 4666 
L 2450 531 
L 3481 531 
L 3481 0 
L 794 0 
L 794 531 
z
" id="DejaVuSans-31" transform="scale(0.015625)"/>
        <path id="DejaVuSans-20" transform="scale(0.015625)"/>
        <path d="M 3116 1747 
Q 3116 2381 2855 2742 
Q 2594 3103 2138 3103 
Q 1681 3103 1420 2742 
Q 1159 2381 1159 1747 
Q 1159 1113 1420 752 
Q 1681 391 2138 391 
Q 2594 391 2855 752 
Q 3116 1113 3116 1747 
z
M 1159 2969 
Q 1341 3281 1617 3432 
Q 1894 3584 2278 3584 
Q 2916 3584 3314 3078 
Q 3713 2572 3713 1747 
Q 3713 922 3314 415 
Q 2916 -91 2278 -91 
Q 1894 -91 1617 61 
Q 1341 213 1159 525 
L 1159 0 
L 581 0 
L 581 4863 
L 1159 4863 
L 1159 2969 
z
" id="DejaVuSans-62" transform="scale(0.015625)"/>
        <path d="M 544 1381 
L 544 3500 
L 1119 3500 
L 1119 1403 
Q 1119 906 1312 657 
Q 1506 409 1894 409 
Q 2359 409 2629 706 
Q 2900 1003 2900 1516 
L 2900 3500 
L 3475 3500 
L 3475 0 
L 2900 0 
L 2900 538 
Q 2691 219 2414 64 
Q 2138 -91 1772 -91 
Q 1169 -91 856 284 
Q 544 659 544 1381 
z
M 1991 3584 
L 1991 3584 
z
" id="DejaVuSans-75" transform="scale(0.015625)"/>
        <path d="M 2834 3397 
L 2834 2853 
Q 2591 2978 2328 3040 
Q 2066 3103 1784 3103 
Q 1356 3103 1142 2972 
Q 928 2841 928 2578 
Q 928 2378 1081 2264 
Q 1234 2150 1697 2047 
L 1894 2003 
Q 2506 1872 2764 1633 
Q 3022 1394 3022 966 
Q 3022 478 2636 193 
Q 2250 -91 1575 -91 
Q 1294 -91 989 -36 
Q 684 19 347 128 
L 347 722 
Q 666 556 975 473 
Q 1284 391 1588 391 
Q 1994 391 2212 530 
Q 2431 669 2431 922 
Q 2431 1156 2273 1281 
Q 2116 1406 1581 1522 
L 1381 1569 
Q 847 1681 609 1914 
Q 372 2147 372 2553 
Q 372 3047 722 3315 
Q 1072 3584 1716 3584 
Q 2034 3584 2315 3537 
Q 2597 3491 2834 3397 
z
" id="DejaVuSans-73" transform="scale(0.015625)"/>
       </defs>
       <use xlink:href="#DejaVuSans-31"/>
       <use x="63.623047" xlink:href="#DejaVuSans-31"/>
       <use x="127.246094" xlink:href="#DejaVuSans-20"/>
       <use x="159.033203" xlink:href="#DejaVuSans-62"/>
       <use x="222.509766" xlink:href="#DejaVuSans-75"/>
       <use x="285.888672" xlink:href="#DejaVuSans-73"/>
      </g>
     </g>
    </g>
    <g id="xtick_2">
     <g id="line2d_2">
      <g>
       <use style="stroke:#000000;stroke-width:0.8;" x="255.6" xlink:href="#meb9adeaf76" y="567"/>
      </g>
     </g>
     <g id="text_2">
      <!-- DE -->
      <g transform="translate(242.983125 587.677187)scale(0.18 -0.18)">
       <defs>
        <path d="M 1259 4147 
L 1259 519 
L 2022 519 
Q 2988 519 3436 956 
Q 3884 1394 3884 2338 
Q 3884 3275 3436 3711 
Q 2988 4147 2022 4147 
L 1259 4147 
z
M 628 4666 
L 1925 4666 
Q 3281 4666 3915 4102 
Q 4550 3538 4550 2338 
Q 4550 1131 3912 565 
Q 3275 0 1925 0 
L 628 0 
L 628 4666 
z
" id="DejaVuSans-44" transform="scale(0.015625)"/>
       </defs>
       <use xlink:href="#DejaVuSans-44"/>
       <use x="77.001953" xlink:href="#DejaVuSans-45"/>
      </g>
      <!-- 11 bus -->
      <g transform="translate(225.181406 607.83325)scale(0.18 -0.18)">
       <use xlink:href="#DejaVuSans-31"/>
       <use x="63.623047" xlink:href="#DejaVuSans-31"/>
       <use x="127.246094" xlink:href="#DejaVuSans-20"/>
       <use x="159.033203" xlink:href="#DejaVuSans-62"/>
       <use x="222.509766" xlink:href="#DejaVuSans-75"/>
       <use x="285.888672" xlink:href="#DejaVuSans-73"/>
      </g>
     </g>
    </g>
    <g id="xtick_3">
     <g id="line2d_3">
      <g>
       <use style="stroke:#000000;stroke-width:0.8;" x="330" xlink:href="#meb9adeaf76" y="567"/>
      </g>
     </g>
     <g id="text_3">
      <!-- Gr -->
      <g transform="translate(319.326563 587.677187)scale(0.18 -0.18)">
       <defs>
        <path d="M 3809 666 
L 3809 1919 
L 2778 1919 
L 2778 2438 
L 4434 2438 
L 4434 434 
Q 4069 175 3628 42 
Q 3188 -91 2688 -91 
Q 1594 -91 976 548 
Q 359 1188 359 2328 
Q 359 3472 976 4111 
Q 1594 4750 2688 4750 
Q 3144 4750 3555 4637 
Q 3966 4525 4313 4306 
L 4313 3634 
Q 3963 3931 3569 4081 
Q 3175 4231 2741 4231 
Q 1884 4231 1454 3753 
Q 1025 3275 1025 2328 
Q 1025 1384 1454 906 
Q 1884 428 2741 428 
Q 3075 428 3337 486 
Q 3600 544 3809 666 
z
" id="DejaVuSans-47" transform="scale(0.015625)"/>
        <path d="M 2631 2963 
Q 2534 3019 2420 3045 
Q 2306 3072 2169 3072 
Q 1681 3072 1420 2755 
Q 1159 2438 1159 1844 
L 1159 0 
L 581 0 
L 581 3500 
L 1159 3500 
L 1159 2956 
Q 1341 3275 1631 3429 
Q 1922 3584 2338 3584 
Q 2397 3584 2469 3576 
Q 2541 3569 2628 3553 
L 2631 2963 
z
" id="DejaVuSans-72" transform="scale(0.015625)"/>
       </defs>
       <use xlink:href="#DejaVuSans-47"/>
       <use x="77.490234" xlink:href="#DejaVuSans-72"/>
      </g>
      <!-- 11 bus -->
      <g transform="translate(299.581406 607.83325)scale(0.18 -0.18)">
       <use xlink:href="#DejaVuSans-31"/>
       <use x="63.623047" xlink:href="#DejaVuSans-31"/>
       <use x="127.246094" xlink:href="#DejaVuSans-20"/>
       <use x="159.033203" xlink:href="#DejaVuSans-62"/>
       <use x="222.509766" xlink:href="#DejaVuSans-75"/>
       <use x="285.888672" xlink:href="#DejaVuSans-73"/>
      </g>
     </g>
    </g>
    <g id="xtick_4">
     <g id="line2d_4">
      <g>
       <use style="stroke:#000000;stroke-width:0.8;" x="404.4" xlink:href="#meb9adeaf76" y="567"/>
      </g>
     </g>
     <g id="text_4">
      <!-- Ex -->
      <g transform="translate(393.38625 587.677187)scale(0.18 -0.18)">
       <use xlink:href="#DejaVuSans-45"/>
       <use x="63.183594" xlink:href="#DejaVuSans-78"/>
      </g>
      <!-- 39 bus -->
      <g transform="translate(373.981406 607.83325)scale(0.18 -0.18)">
       <defs>
        <path d="M 2597 2516 
Q 3050 2419 3304 2112 
Q 3559 1806 3559 1356 
Q 3559 666 3084 287 
Q 2609 -91 1734 -91 
Q 1441 -91 1130 -33 
Q 819 25 488 141 
L 488 750 
Q 750 597 1062 519 
Q 1375 441 1716 441 
Q 2309 441 2620 675 
Q 2931 909 2931 1356 
Q 2931 1769 2642 2001 
Q 2353 2234 1838 2234 
L 1294 2234 
L 1294 2753 
L 1863 2753 
Q 2328 2753 2575 2939 
Q 2822 3125 2822 3475 
Q 2822 3834 2567 4026 
Q 2313 4219 1838 4219 
Q 1578 4219 1281 4162 
Q 984 4106 628 3988 
L 628 4550 
Q 988 4650 1302 4700 
Q 1616 4750 1894 4750 
Q 2613 4750 3031 4423 
Q 3450 4097 3450 3541 
Q 3450 3153 3228 2886 
Q 3006 2619 2597 2516 
z
" id="DejaVuSans-33" transform="scale(0.015625)"/>
        <path d="M 703 97 
L 703 672 
Q 941 559 1184 500 
Q 1428 441 1663 441 
Q 2288 441 2617 861 
Q 2947 1281 2994 2138 
Q 2813 1869 2534 1725 
Q 2256 1581 1919 1581 
Q 1219 1581 811 2004 
Q 403 2428 403 3163 
Q 403 3881 828 4315 
Q 1253 4750 1959 4750 
Q 2769 4750 3195 4129 
Q 3622 3509 3622 2328 
Q 3622 1225 3098 567 
Q 2575 -91 1691 -91 
Q 1453 -91 1209 -44 
Q 966 3 703 97 
z
M 1959 2075 
Q 2384 2075 2632 2365 
Q 2881 2656 2881 3163 
Q 2881 3666 2632 3958 
Q 2384 4250 1959 4250 
Q 1534 4250 1286 3958 
Q 1038 3666 1038 3163 
Q 1038 2656 1286 2365 
Q 1534 2075 1959 2075 
z
" id="DejaVuSans-39" transform="scale(0.015625)"/>
       </defs>
       <use xlink:href="#DejaVuSans-33"/>
       <use x="63.623047" xlink:href="#DejaVuSans-39"/>
       <use x="127.246094" xlink:href="#DejaVuSans-20"/>
       <use x="159.033203" xlink:href="#DejaVuSans-62"/>
       <use x="222.509766" xlink:href="#DejaVuSans-75"/>
       <use x="285.888672" xlink:href="#DejaVuSans-73"/>
      </g>
     </g>
    </g>
    <g id="xtick_5">
     <g id="line2d_5">
      <g>
       <use style="stroke:#000000;stroke-width:0.8;" x="478.8" xlink:href="#meb9adeaf76" y="567"/>
      </g>
     </g>
     <g id="text_5">
      <!-- DE -->
      <g transform="translate(466.183125 587.677187)scale(0.18 -0.18)">
       <use xlink:href="#DejaVuSans-44"/>
       <use x="77.001953" xlink:href="#DejaVuSans-45"/>
      </g>
      <!-- 39 bus -->
      <g transform="translate(448.381406 607.83325)scale(0.18 -0.18)">
       <use xlink:href="#DejaVuSans-33"/>
       <use x="63.623047" xlink:href="#DejaVuSans-39"/>
       <use x="127.246094" xlink:href="#DejaVuSans-20"/>
       <use x="159.033203" xlink:href="#DejaVuSans-62"/>
       <use x="222.509766" xlink:href="#DejaVuSans-75"/>
       <use x="285.888672" xlink:href="#DejaVuSans-73"/>
      </g>
     </g>
    </g>
    <g id="xtick_6">
     <g id="line2d_6">
      <g>
       <use style="stroke:#000000;stroke-width:0.8;" x="553.2" xlink:href="#meb9adeaf76" y="567"/>
      </g>
     </g>
     <g id="text_6">
      <!-- Gr -->
      <g transform="translate(542.526562 587.677187)scale(0.18 -0.18)">
       <use xlink:href="#DejaVuSans-47"/>
       <use x="77.490234" xlink:href="#DejaVuSans-72"/>
      </g>
      <!-- 39 bus -->
      <g transform="translate(522.781406 607.83325)scale(0.18 -0.18)">
       <use xlink:href="#DejaVuSans-33"/>
       <use x="63.623047" xlink:href="#DejaVuSans-39"/>
       <use x="127.246094" xlink:href="#DejaVuSans-20"/>
       <use x="159.033203" xlink:href="#DejaVuSans-62"/>
       <use x="222.509766" xlink:href="#DejaVuSans-75"/>
       <use x="285.888672" xlink:href="#DejaVuSans-73"/>
      </g>
     </g>
    </g>
    <g id="xtick_7">
     <g id="line2d_7">
      <g>
       <use style="stroke:#000000;stroke-width:0.8;" x="627.6" xlink:href="#meb9adeaf76" y="567"/>
      </g>
     </g>
     <g id="text_7">
      <!-- Ex -->
      <g transform="translate(616.58625 587.677187)scale(0.18 -0.18)">
       <use xlink:href="#DejaVuSans-45"/>
       <use x="63.183594" xlink:href="#DejaVuSans-78"/>
      </g>
      <!-- 57 bus -->
      <g transform="translate(597.181406 607.83325)scale(0.18 -0.18)">
       <defs>
        <path d="M 691 4666 
L 3169 4666 
L 3169 4134 
L 1269 4134 
L 1269 2991 
Q 1406 3038 1543 3061 
Q 1681 3084 1819 3084 
Q 2600 3084 3056 2656 
Q 3513 2228 3513 1497 
Q 3513 744 3044 326 
Q 2575 -91 1722 -91 
Q 1428 -91 1123 -41 
Q 819 9 494 109 
L 494 744 
Q 775 591 1075 516 
Q 1375 441 1709 441 
Q 2250 441 2565 725 
Q 2881 1009 2881 1497 
Q 2881 1984 2565 2268 
Q 2250 2553 1709 2553 
Q 1456 2553 1204 2497 
Q 953 2441 691 2322 
L 691 4666 
z
" id="DejaVuSans-35" transform="scale(0.015625)"/>
        <path d="M 525 4666 
L 3525 4666 
L 3525 4397 
L 1831 0 
L 1172 0 
L 2766 4134 
L 525 4134 
L 525 4666 
z
" id="DejaVuSans-37" transform="scale(0.015625)"/>
       </defs>
       <use xlink:href="#DejaVuSans-35"/>
       <use x="63.623047" xlink:href="#DejaVuSans-37"/>
       <use x="127.246094" xlink:href="#DejaVuSans-20"/>
       <use x="159.033203" xlink:href="#DejaVuSans-62"/>
       <use x="222.509766" xlink:href="#DejaVuSans-75"/>
       <use x="285.888672" xlink:href="#DejaVuSans-73"/>
      </g>
     </g>
    </g>
    <g id="xtick_8">
     <g id="line2d_8">
      <g>
       <use style="stroke:#000000;stroke-width:0.8;" x="702" xlink:href="#meb9adeaf76" y="567"/>
      </g>
     </g>
     <g id="text_8">
      <!-- DE -->
      <g transform="translate(689.383125 587.677187)scale(0.18 -0.18)">
       <use xlink:href="#DejaVuSans-44"/>
       <use x="77.001953" xlink:href="#DejaVuSans-45"/>
      </g>
      <!-- 57 bus -->
      <g transform="translate(671.581406 607.83325)scale(0.18 -0.18)">
       <use xlink:href="#DejaVuSans-35"/>
       <use x="63.623047" xlink:href="#DejaVuSans-37"/>
       <use x="127.246094" xlink:href="#DejaVuSans-20"/>
       <use x="159.033203" xlink:href="#DejaVuSans-62"/>
       <use x="222.509766" xlink:href="#DejaVuSans-75"/>
       <use x="285.888672" xlink:href="#DejaVuSans-73"/>
      </g>
     </g>
    </g>
    <g id="xtick_9">
     <g id="line2d_9">
      <g>
       <use style="stroke:#000000;stroke-width:0.8;" x="776.4" xlink:href="#meb9adeaf76" y="567"/>
      </g>
     </g>
     <g id="text_9">
      <!-- Gr -->
      <g transform="translate(765.726562 587.677187)scale(0.18 -0.18)">
       <use xlink:href="#DejaVuSans-47"/>
       <use x="77.490234" xlink:href="#DejaVuSans-72"/>
      </g>
      <!-- 57 bus -->
      <g transform="translate(745.981406 607.83325)scale(0.18 -0.18)">
       <use xlink:href="#DejaVuSans-35"/>
       <use x="63.623047" xlink:href="#DejaVuSans-37"/>
       <use x="127.246094" xlink:href="#DejaVuSans-20"/>
       <use x="159.033203" xlink:href="#DejaVuSans-62"/>
       <use x="222.509766" xlink:href="#DejaVuSans-75"/>
       <use x="285.888672" xlink:href="#DejaVuSans-73"/>
      </g>
     </g>
    </g>
    <g id="xtick_10">
     <g id="line2d_10">
      <g>
       <use style="stroke:#000000;stroke-width:0.8;" x="850.8" xlink:href="#meb9adeaf76" y="567"/>
      </g>
     </g>
     <g id="text_10">
      <!-- Ex -->
      <g transform="translate(839.78625 587.677187)scale(0.18 -0.18)">
       <use xlink:href="#DejaVuSans-45"/>
       <use x="63.183594" xlink:href="#DejaVuSans-78"/>
      </g>
      <!-- 118 bus -->
      <g transform="translate(814.655156 607.83325)scale(0.18 -0.18)">
       <defs>
        <path d="M 2034 2216 
Q 1584 2216 1326 1975 
Q 1069 1734 1069 1313 
Q 1069 891 1326 650 
Q 1584 409 2034 409 
Q 2484 409 2743 651 
Q 3003 894 3003 1313 
Q 3003 1734 2745 1975 
Q 2488 2216 2034 2216 
z
M 1403 2484 
Q 997 2584 770 2862 
Q 544 3141 544 3541 
Q 544 4100 942 4425 
Q 1341 4750 2034 4750 
Q 2731 4750 3128 4425 
Q 3525 4100 3525 3541 
Q 3525 3141 3298 2862 
Q 3072 2584 2669 2484 
Q 3125 2378 3379 2068 
Q 3634 1759 3634 1313 
Q 3634 634 3220 271 
Q 2806 -91 2034 -91 
Q 1263 -91 848 271 
Q 434 634 434 1313 
Q 434 1759 690 2068 
Q 947 2378 1403 2484 
z
M 1172 3481 
Q 1172 3119 1398 2916 
Q 1625 2713 2034 2713 
Q 2441 2713 2670 2916 
Q 2900 3119 2900 3481 
Q 2900 3844 2670 4047 
Q 2441 4250 2034 4250 
Q 1625 4250 1398 4047 
Q 1172 3844 1172 3481 
z
" id="DejaVuSans-38" transform="scale(0.015625)"/>
       </defs>
       <use xlink:href="#DejaVuSans-31"/>
       <use x="63.623047" xlink:href="#DejaVuSans-31"/>
       <use x="127.246094" xlink:href="#DejaVuSans-38"/>
       <use x="190.869141" xlink:href="#DejaVuSans-20"/>
       <use x="222.65625" xlink:href="#DejaVuSans-62"/>
       <use x="286.132812" xlink:href="#DejaVuSans-75"/>
       <use x="349.511719" xlink:href="#DejaVuSans-73"/>
      </g>
     </g>
    </g>
    <g id="xtick_11">
     <g id="line2d_11">
      <g>
       <use style="stroke:#000000;stroke-width:0.8;" x="925.2" xlink:href="#meb9adeaf76" y="567"/>
      </g>
     </g>
     <g id="text_11">
      <!-- DE -->
      <g transform="translate(912.583125 587.677187)scale(0.18 -0.18)">
       <use xlink:href="#DejaVuSans-44"/>
       <use x="77.001953" xlink:href="#DejaVuSans-45"/>
      </g>
      <!-- 118 bus -->
      <g transform="translate(889.055156 607.83325)scale(0.18 -0.18)">
       <use xlink:href="#DejaVuSans-31"/>
       <use x="63.623047" xlink:href="#DejaVuSans-31"/>
       <use x="127.246094" xlink:href="#DejaVuSans-38"/>
       <use x="190.869141" xlink:href="#DejaVuSans-20"/>
       <use x="222.65625" xlink:href="#DejaVuSans-62"/>
       <use x="286.132812" xlink:href="#DejaVuSans-75"/>
       <use x="349.511719" xlink:href="#DejaVuSans-73"/>
      </g>
     </g>
    </g>
    <g id="xtick_12">
     <g id="line2d_12">
      <g>
       <use style="stroke:#000000;stroke-width:0.8;" x="999.6" xlink:href="#meb9adeaf76" y="567"/>
      </g>
     </g>
     <g id="text_12">
      <!-- Gr -->
      <g transform="translate(988.926562 587.677187)scale(0.18 -0.18)">
       <use xlink:href="#DejaVuSans-47"/>
       <use x="77.490234" xlink:href="#DejaVuSans-72"/>
      </g>
      <!-- 118 bus -->
      <g transform="translate(963.455156 607.83325)scale(0.18 -0.18)">
       <use xlink:href="#DejaVuSans-31"/>
       <use x="63.623047" xlink:href="#DejaVuSans-31"/>
       <use x="127.246094" xlink:href="#DejaVuSans-38"/>
       <use x="190.869141" xlink:href="#DejaVuSans-20"/>
       <use x="222.65625" xlink:href="#DejaVuSans-62"/>
       <use x="286.132812" xlink:href="#DejaVuSans-75"/>
       <use x="349.511719" xlink:href="#DejaVuSans-73"/>
      </g>
     </g>
    </g>
   </g>
   <g id="matplotlib.axis_2">
    <g id="ytick_1">
     <g id="line2d_13">
      <defs>
       <path d="M 0 0 
L -3.5 0 
" id="me076728032" style="stroke:#000000;stroke-width:0.8;"/>
      </defs>
      <g>
       <use style="stroke:#000000;stroke-width:0.8;" x="144" xlink:href="#me076728032" y="501.534365"/>
      </g>
     </g>
     <g id="text_13">
      <!-- $\mathdefault{10^{1}}$ -->
      <g transform="translate(105.32 508.372959)scale(0.18 -0.18)">
       <defs>
        <path d="M 2034 4250 
Q 1547 4250 1301 3770 
Q 1056 3291 1056 2328 
Q 1056 1369 1301 889 
Q 1547 409 2034 409 
Q 2525 409 2770 889 
Q 3016 1369 3016 2328 
Q 3016 3291 2770 3770 
Q 2525 4250 2034 4250 
z
M 2034 4750 
Q 2819 4750 3233 4129 
Q 3647 3509 3647 2328 
Q 3647 1150 3233 529 
Q 2819 -91 2034 -91 
Q 1250 -91 836 529 
Q 422 1150 422 2328 
Q 422 3509 836 4129 
Q 1250 4750 2034 4750 
z
" id="DejaVuSans-30" transform="scale(0.015625)"/>
       </defs>
       <use transform="translate(0 0.684375)" xlink:href="#DejaVuSans-31"/>
       <use transform="translate(63.623047 0.684375)" xlink:href="#DejaVuSans-30"/>
       <use transform="translate(128.203125 38.965625)scale(0.7)" xlink:href="#DejaVuSans-31"/>
      </g>
     </g>
    </g>
    <g id="ytick_2">
     <g id="line2d_14">
      <g>
       <use style="stroke:#000000;stroke-width:0.8;" x="144" xlink:href="#me076728032" y="382.879189"/>
      </g>
     </g>
     <g id="text_14">
      <!-- $\mathdefault{10^{3}}$ -->
      <g transform="translate(105.32 389.717783)scale(0.18 -0.18)">
       <use transform="translate(0 0.765625)" xlink:href="#DejaVuSans-31"/>
       <use transform="translate(63.623047 0.765625)" xlink:href="#DejaVuSans-30"/>
       <use transform="translate(128.203125 39.046875)scale(0.7)" xlink:href="#DejaVuSans-33"/>
      </g>
     </g>
    </g>
    <g id="ytick_3">
     <g id="line2d_15">
      <g>
       <use style="stroke:#000000;stroke-width:0.8;" x="144" xlink:href="#me076728032" y="264.224013"/>
      </g>
     </g>
     <g id="text_15">
      <!-- $\mathdefault{10^{5}}$ -->
      <g transform="translate(105.32 271.062606)scale(0.18 -0.18)">
       <use transform="translate(0 0.684375)" xlink:href="#DejaVuSans-31"/>
       <use transform="translate(63.623047 0.684375)" xlink:href="#DejaVuSans-30"/>
       <use transform="translate(128.203125 38.965625)scale(0.7)" xlink:href="#DejaVuSans-35"/>
      </g>
     </g>
    </g>
    <g id="ytick_4">
     <g id="line2d_16">
      <g>
       <use style="stroke:#000000;stroke-width:0.8;" x="144" xlink:href="#me076728032" y="145.568836"/>
      </g>
     </g>
     <g id="text_16">
      <!-- $\mathdefault{10^{7}}$ -->
      <g transform="translate(105.32 152.40743)scale(0.18 -0.18)">
       <use transform="translate(0 0.684375)" xlink:href="#DejaVuSans-31"/>
       <use transform="translate(63.623047 0.684375)" xlink:href="#DejaVuSans-30"/>
       <use transform="translate(128.203125 38.965625)scale(0.7)" xlink:href="#DejaVuSans-37"/>
      </g>
     </g>
    </g>
    <g id="text_17">
     <!-- Execution Time (ms) -->
     <g transform="translate(97.576562 414.760781)rotate(-90)scale(0.18 -0.18)">
      <defs>
       <path d="M 3597 1894 
L 3597 1613 
L 953 1613 
Q 991 1019 1311 708 
Q 1631 397 2203 397 
Q 2534 397 2845 478 
Q 3156 559 3463 722 
L 3463 178 
Q 3153 47 2828 -22 
Q 2503 -91 2169 -91 
Q 1331 -91 842 396 
Q 353 884 353 1716 
Q 353 2575 817 3079 
Q 1281 3584 2069 3584 
Q 2775 3584 3186 3129 
Q 3597 2675 3597 1894 
z
M 3022 2063 
Q 3016 2534 2758 2815 
Q 2500 3097 2075 3097 
Q 1594 3097 1305 2825 
Q 1016 2553 972 2059 
L 3022 2063 
z
" id="DejaVuSans-65" transform="scale(0.015625)"/>
       <path d="M 3122 3366 
L 3122 2828 
Q 2878 2963 2633 3030 
Q 2388 3097 2138 3097 
Q 1578 3097 1268 2742 
Q 959 2388 959 1747 
Q 959 1106 1268 751 
Q 1578 397 2138 397 
Q 2388 397 2633 464 
Q 2878 531 3122 666 
L 3122 134 
Q 2881 22 2623 -34 
Q 2366 -91 2075 -91 
Q 1284 -91 818 406 
Q 353 903 353 1747 
Q 353 2603 823 3093 
Q 1294 3584 2113 3584 
Q 2378 3584 2631 3529 
Q 2884 3475 3122 3366 
z
" id="DejaVuSans-63" transform="scale(0.015625)"/>
       <path d="M 1172 4494 
L 1172 3500 
L 2356 3500 
L 2356 3053 
L 1172 3053 
L 1172 1153 
Q 1172 725 1289 603 
Q 1406 481 1766 481 
L 2356 481 
L 2356 0 
L 1766 0 
Q 1100 0 847 248 
Q 594 497 594 1153 
L 594 3053 
L 172 3053 
L 172 3500 
L 594 3500 
L 594 4494 
L 1172 4494 
z
" id="DejaVuSans-74" transform="scale(0.015625)"/>
       <path d="M 603 3500 
L 1178 3500 
L 1178 0 
L 603 0 
L 603 3500 
z
M 603 4863 
L 1178 4863 
L 1178 4134 
L 603 4134 
L 603 4863 
z
" id="DejaVuSans-69" transform="scale(0.015625)"/>
       <path d="M 1959 3097 
Q 1497 3097 1228 2736 
Q 959 2375 959 1747 
Q 959 1119 1226 758 
Q 1494 397 1959 397 
Q 2419 397 2687 759 
Q 2956 1122 2956 1747 
Q 2956 2369 2687 2733 
Q 2419 3097 1959 3097 
z
M 1959 3584 
Q 2709 3584 3137 3096 
Q 3566 2609 3566 1747 
Q 3566 888 3137 398 
Q 2709 -91 1959 -91 
Q 1206 -91 779 398 
Q 353 888 353 1747 
Q 353 2609 779 3096 
Q 1206 3584 1959 3584 
z
" id="DejaVuSans-6f" transform="scale(0.015625)"/>
       <path d="M 3513 2113 
L 3513 0 
L 2938 0 
L 2938 2094 
Q 2938 2591 2744 2837 
Q 2550 3084 2163 3084 
Q 1697 3084 1428 2787 
Q 1159 2491 1159 1978 
L 1159 0 
L 581 0 
L 581 3500 
L 1159 3500 
L 1159 2956 
Q 1366 3272 1645 3428 
Q 1925 3584 2291 3584 
Q 2894 3584 3203 3211 
Q 3513 2838 3513 2113 
z
" id="DejaVuSans-6e" transform="scale(0.015625)"/>
       <path d="M -19 4666 
L 3928 4666 
L 3928 4134 
L 2272 4134 
L 2272 0 
L 1638 0 
L 1638 4134 
L -19 4134 
L -19 4666 
z
" id="DejaVuSans-54" transform="scale(0.015625)"/>
       <path d="M 3328 2828 
Q 3544 3216 3844 3400 
Q 4144 3584 4550 3584 
Q 5097 3584 5394 3201 
Q 5691 2819 5691 2113 
L 5691 0 
L 5113 0 
L 5113 2094 
Q 5113 2597 4934 2840 
Q 4756 3084 4391 3084 
Q 3944 3084 3684 2787 
Q 3425 2491 3425 1978 
L 3425 0 
L 2847 0 
L 2847 2094 
Q 2847 2600 2669 2842 
Q 2491 3084 2119 3084 
Q 1678 3084 1418 2786 
Q 1159 2488 1159 1978 
L 1159 0 
L 581 0 
L 581 3500 
L 1159 3500 
L 1159 2956 
Q 1356 3278 1631 3431 
Q 1906 3584 2284 3584 
Q 2666 3584 2933 3390 
Q 3200 3197 3328 2828 
z
" id="DejaVuSans-6d" transform="scale(0.015625)"/>
       <path d="M 1984 4856 
Q 1566 4138 1362 3434 
Q 1159 2731 1159 2009 
Q 1159 1288 1364 580 
Q 1569 -128 1984 -844 
L 1484 -844 
Q 1016 -109 783 600 
Q 550 1309 550 2009 
Q 550 2706 781 3412 
Q 1013 4119 1484 4856 
L 1984 4856 
z
" id="DejaVuSans-28" transform="scale(0.015625)"/>
       <path d="M 513 4856 
L 1013 4856 
Q 1481 4119 1714 3412 
Q 1947 2706 1947 2009 
Q 1947 1309 1714 600 
Q 1481 -109 1013 -844 
L 513 -844 
Q 928 -128 1133 580 
Q 1338 1288 1338 2009 
Q 1338 2731 1133 3434 
Q 928 4138 513 4856 
z
" id="DejaVuSans-29" transform="scale(0.015625)"/>
      </defs>
      <use xlink:href="#DejaVuSans-45"/>
      <use x="63.183594" xlink:href="#DejaVuSans-78"/>
      <use x="119.238281" xlink:href="#DejaVuSans-65"/>
      <use x="180.761719" xlink:href="#DejaVuSans-63"/>
      <use x="235.742188" xlink:href="#DejaVuSans-75"/>
      <use x="299.121094" xlink:href="#DejaVuSans-74"/>
      <use x="338.330078" xlink:href="#DejaVuSans-69"/>
      <use x="366.113281" xlink:href="#DejaVuSans-6f"/>
      <use x="427.294922" xlink:href="#DejaVuSans-6e"/>
      <use x="490.673828" xlink:href="#DejaVuSans-20"/>
      <use x="522.460938" xlink:href="#DejaVuSans-54"/>
      <use x="580.419922" xlink:href="#DejaVuSans-69"/>
      <use x="608.203125" xlink:href="#DejaVuSans-6d"/>
      <use x="705.615234" xlink:href="#DejaVuSans-65"/>
      <use x="767.138672" xlink:href="#DejaVuSans-20"/>
      <use x="798.925781" xlink:href="#DejaVuSans-28"/>
      <use x="837.939453" xlink:href="#DejaVuSans-6d"/>
      <use x="935.351562" xlink:href="#DejaVuSans-73"/>
      <use x="987.451172" xlink:href="#DejaVuSans-29"/>
     </g>
    </g>
   </g>
   <g id="LineCollection_1">
    <path clip-path="url(#p901cc22c56)" d="M 106.8 382.879189 
L 1153 382.879189 
" style="fill:none;stroke:#1f77b4;stroke-dasharray:5.55,2.4;stroke-dashoffset:0;stroke-width:1.5;"/>
   </g>
   <g id="LineCollection_2">
    <path clip-path="url(#p901cc22c56)" d="M 106.8 277.385764 
L 1153 277.385764 
" style="fill:none;stroke:#1f77b4;stroke-dasharray:5.55,2.4;stroke-dashoffset:0;stroke-width:1.5;"/>
   </g>
   <g id="LineCollection_3">
    <path clip-path="url(#p901cc22c56)" d="M 106.8 171.892339 
L 1153 171.892339 
" style="fill:none;stroke:#1f77b4;stroke-dasharray:5.55,2.4;stroke-dashoffset:0;stroke-width:1.5;"/>
   </g>
   <g id="patch_51">
    <path d="M 144 567 
L 144 77.76 
" style="fill:none;stroke:#000000;stroke-linecap:square;stroke-linejoin:miter;stroke-width:0.8;"/>
   </g>
   <g id="patch_52">
    <path d="M 1036.8 567 
L 1036.8 77.76 
" style="fill:none;stroke:#000000;stroke-linecap:square;stroke-linejoin:miter;stroke-width:0.8;"/>
   </g>
   <g id="patch_53">
    <path d="M 144 567 
L 1036.8 567 
" style="fill:none;stroke:#000000;stroke-linecap:square;stroke-linejoin:miter;stroke-width:0.8;"/>
   </g>
   <g id="patch_54">
    <path d="M 144 77.76 
L 1036.8 77.76 
" style="fill:none;stroke:#000000;stroke-linecap:square;stroke-linejoin:miter;stroke-width:0.8;"/>
   </g>
   <g id="text_18">
    <!-- 1 second -->
    <g transform="translate(158.88 378.181557)scale(0.18 -0.18)">
     <defs>
      <path d="M 2906 2969 
L 2906 4863 
L 3481 4863 
L 3481 0 
L 2906 0 
L 2906 525 
Q 2725 213 2448 61 
Q 2172 -91 1784 -91 
Q 1150 -91 751 415 
Q 353 922 353 1747 
Q 353 2572 751 3078 
Q 1150 3584 1784 3584 
Q 2172 3584 2448 3432 
Q 2725 3281 2906 2969 
z
M 947 1747 
Q 947 1113 1208 752 
Q 1469 391 1925 391 
Q 2381 391 2643 752 
Q 2906 1113 2906 1747 
Q 2906 2381 2643 2742 
Q 2381 3103 1925 3103 
Q 1469 3103 1208 2742 
Q 947 2381 947 1747 
z
" id="DejaVuSans-64" transform="scale(0.015625)"/>
     </defs>
     <use xlink:href="#DejaVuSans-31"/>
     <use x="63.623047" xlink:href="#DejaVuSans-20"/>
     <use x="95.410156" xlink:href="#DejaVuSans-73"/>
     <use x="147.509766" xlink:href="#DejaVuSans-65"/>
     <use x="209.033203" xlink:href="#DejaVuSans-63"/>
     <use x="264.013672" xlink:href="#DejaVuSans-6f"/>
     <use x="325.195312" xlink:href="#DejaVuSans-6e"/>
     <use x="388.574219" xlink:href="#DejaVuSans-64"/>
    </g>
   </g>
   <g id="text_19">
    <!-- 1 minute -->
    <g transform="translate(158.88 273.413972)scale(0.18 -0.18)">
     <use xlink:href="#DejaVuSans-31"/>
     <use x="63.623047" xlink:href="#DejaVuSans-20"/>
     <use x="95.410156" xlink:href="#DejaVuSans-6d"/>
     <use x="192.822266" xlink:href="#DejaVuSans-69"/>
     <use x="220.605469" xlink:href="#DejaVuSans-6e"/>
     <use x="283.984375" xlink:href="#DejaVuSans-75"/>
     <use x="347.363281" xlink:href="#DejaVuSans-74"/>
     <use x="386.572266" xlink:href="#DejaVuSans-65"/>
    </g>
   </g>
   <g id="text_20">
    <!-- 1 hour -->
    <g transform="translate(158.88 168.541436)scale(0.18 -0.18)">
     <defs>
      <path d="M 3513 2113 
L 3513 0 
L 2938 0 
L 2938 2094 
Q 2938 2591 2744 2837 
Q 2550 3084 2163 3084 
Q 1697 3084 1428 2787 
Q 1159 2491 1159 1978 
L 1159 0 
L 581 0 
L 581 4863 
L 1159 4863 
L 1159 2956 
Q 1366 3272 1645 3428 
Q 1925 3584 2291 3584 
Q 2894 3584 3203 3211 
Q 3513 2838 3513 2113 
z
" id="DejaVuSans-68" transform="scale(0.015625)"/>
     </defs>
     <use xlink:href="#DejaVuSans-31"/>
     <use x="63.623047" xlink:href="#DejaVuSans-20"/>
     <use x="95.410156" xlink:href="#DejaVuSans-68"/>
     <use x="158.789062" xlink:href="#DejaVuSans-6f"/>
     <use x="219.970703" xlink:href="#DejaVuSans-75"/>
     <use x="283.349609" xlink:href="#DejaVuSans-72"/>
    </g>
   </g>
   <g id="legend_1">
    <g id="patch_55">
     <path d="M 929.640937 197.8425 
L 1024.2 197.8425 
Q 1027.8 197.8425 1027.8 194.2425 
L 1027.8 90.36 
Q 1027.8 86.76 1024.2 86.76 
L 929.640937 86.76 
Q 926.040937 86.76 926.040937 90.36 
L 926.040937 194.2425 
Q 926.040937 197.8425 929.640937 197.8425 
z
" style="fill:#ffffff;opacity:0.8;stroke:#cccccc;stroke-linejoin:miter;"/>
    </g>
    <g id="patch_56">
     <path d="M 933.240937 107.637187 
L 969.240937 107.637187 
L 969.240937 95.037187 
L 933.240937 95.037187 
z
" style="fill:#000080;"/>
    </g>
    <g id="text_21">
     <!-- k=1 -->
     <g transform="translate(983.640937 107.637187)scale(0.18 -0.18)">
      <defs>
       <path d="M 581 4863 
L 1159 4863 
L 1159 1991 
L 2875 3500 
L 3609 3500 
L 1753 1863 
L 3688 0 
L 2938 0 
L 1159 1709 
L 1159 0 
L 581 0 
L 581 4863 
z
" id="DejaVuSans-6b" transform="scale(0.015625)"/>
       <path d="M 678 2906 
L 4684 2906 
L 4684 2381 
L 678 2381 
L 678 2906 
z
M 678 1631 
L 4684 1631 
L 4684 1100 
L 678 1100 
L 678 1631 
z
" id="DejaVuSans-3d" transform="scale(0.015625)"/>
      </defs>
      <use xlink:href="#DejaVuSans-6b"/>
      <use x="57.910156" xlink:href="#DejaVuSans-3d"/>
      <use x="141.699219" xlink:href="#DejaVuSans-31"/>
     </g>
    </g>
    <g id="patch_57">
     <path d="M 933.240937 134.057812 
L 969.240937 134.057812 
L 969.240937 121.457812 
L 933.240937 121.457812 
z
" style="fill:#4169e1;"/>
    </g>
    <g id="text_22">
     <!-- k=2 -->
     <g transform="translate(983.640937 134.057812)scale(0.18 -0.18)">
      <defs>
       <path d="M 1228 531 
L 3431 531 
L 3431 0 
L 469 0 
L 469 531 
Q 828 903 1448 1529 
Q 2069 2156 2228 2338 
Q 2531 2678 2651 2914 
Q 2772 3150 2772 3378 
Q 2772 3750 2511 3984 
Q 2250 4219 1831 4219 
Q 1534 4219 1204 4116 
Q 875 4013 500 3803 
L 500 4441 
Q 881 4594 1212 4672 
Q 1544 4750 1819 4750 
Q 2544 4750 2975 4387 
Q 3406 4025 3406 3419 
Q 3406 3131 3298 2873 
Q 3191 2616 2906 2266 
Q 2828 2175 2409 1742 
Q 1991 1309 1228 531 
z
" id="DejaVuSans-32" transform="scale(0.015625)"/>
      </defs>
      <use xlink:href="#DejaVuSans-6b"/>
      <use x="57.910156" xlink:href="#DejaVuSans-3d"/>
      <use x="141.699219" xlink:href="#DejaVuSans-32"/>
     </g>
    </g>
    <g id="patch_58">
     <path d="M 933.240937 160.478437 
L 969.240937 160.478437 
L 969.240937 147.878437 
L 933.240937 147.878437 
z
" style="fill:#9acd32;"/>
    </g>
    <g id="text_23">
     <!-- k=3 -->
     <g transform="translate(983.640937 160.478437)scale(0.18 -0.18)">
      <use xlink:href="#DejaVuSans-6b"/>
      <use x="57.910156" xlink:href="#DejaVuSans-3d"/>
      <use x="141.699219" xlink:href="#DejaVuSans-33"/>
     </g>
    </g>
    <g id="patch_59">
     <path d="M 933.240937 186.899062 
L 969.240937 186.899062 
L 969.240937 174.299062 
L 933.240937 174.299062 
z
" style="fill:#ffff00;"/>
    </g>
    <g id="text_24">
     <!-- k=4 -->
     <g transform="translate(983.640937 186.899062)scale(0.18 -0.18)">
      <defs>
       <path d="M 2419 4116 
L 825 1625 
L 2419 1625 
L 2419 4116 
z
M 2253 4666 
L 3047 4666 
L 3047 1625 
L 3713 1625 
L 3713 1100 
L 3047 1100 
L 3047 0 
L 2419 0 
L 2419 1100 
L 313 1100 
L 313 1709 
L 2253 4666 
z
" id="DejaVuSans-34" transform="scale(0.015625)"/>
      </defs>
      <use xlink:href="#DejaVuSans-6b"/>
      <use x="57.910156" xlink:href="#DejaVuSans-3d"/>
      <use x="141.699219" xlink:href="#DejaVuSans-34"/>
     </g>
    </g>
   </g>
  </g>
 </g>
 <defs>
  <clipPath id="p901cc22c56">
   <rect height="489.24" width="892.8" x="144" y="77.76"/>
  </clipPath>
 </defs>
</svg>
